<svg width="157" height="55" viewBox="0 0 157 55" fill="none" xmlns="http://www.w3.org/2000/svg">
<path fill-rule="evenodd" clip-rule="evenodd" d="M4.85791 35.9302V4.43018H36.3499C35.6057 4.90284 34.9032 5.43809 34.2499 6.03015C33.9318 6.32638 33.5502 6.54586 33.1342 6.67188C32.7182 6.79789 32.2789 6.82713 31.8499 6.7572C23.9166 6.74854 15.9832 6.74854 8.04991 6.7572H7.14991V8.03418C7.14991 15.9962 7.15324 23.9574 7.15991 31.9181C7.18296 32.2525 7.13589 32.5881 7.02172 32.9032C6.90755 33.2183 6.72879 33.5061 6.49691 33.7482C5.90936 34.4436 5.36213 35.1721 4.85791 35.9302V35.9302Z" fill="#E97707"/>
<path fill-rule="evenodd" clip-rule="evenodd" d="M56.897 16.7221C56.984 14.0221 57.524 11.7171 59.439 9.9441C60.2861 9.17793 61.2918 8.60806 62.3844 8.27515C63.477 7.94224 64.6296 7.85445 65.76 8.01807C67.0779 8.1349 68.3414 8.59861 69.422 9.36207C70.2898 10.0087 71.0136 10.8288 71.5473 11.7704C72.081 12.7119 72.413 13.7543 72.522 14.8311C72.9148 16.9711 72.5859 19.181 71.587 21.114C70.9963 22.2579 70.1009 23.2163 68.9997 23.8832C67.8985 24.5501 66.6344 24.8996 65.347 24.8931C63.4544 25.0731 61.5597 24.5717 60.004 23.479C58.4189 22.2725 57.3761 20.4874 57.104 18.514C56.982 17.859 56.953 17.1871 56.897 16.7221ZM60.251 16.488C60.336 17.153 60.372 17.825 60.508 18.478C60.6428 19.3887 61.0744 20.2296 61.7358 20.87C62.3972 21.5104 63.2514 21.9146 64.166 22.02C66.938 22.101 68.272 21.202 68.987 18.785C69.4583 17.1868 69.4339 15.4832 68.917 13.8991C68.7338 13.1533 68.3307 12.48 67.7601 11.9661C67.1895 11.4522 66.4777 11.1216 65.717 11.0171C63.887 10.7511 62.217 11.0701 61.164 12.8341C60.5263 13.9437 60.2101 15.2089 60.251 16.488V16.488Z" fill="#E97707"/>
<path fill-rule="evenodd" clip-rule="evenodd" d="M99.3499 15.241C99.7069 12.758 101.482 11.87 103.592 11.725C104.741 11.6725 105.893 11.7812 107.012 12.048C107.725 12.1175 108.388 12.4483 108.873 12.9767C109.357 13.5052 109.629 14.1941 109.637 14.911C109.764 16.9342 109.731 18.9641 109.537 20.982C109.216 23.256 107.894 24.195 105.599 24.688C104.443 24.8915 103.262 24.9158 102.099 24.76C101.209 24.5915 100.406 24.118 99.828 23.4213C99.2498 22.7246 98.9324 21.8481 98.9307 20.9427C98.9289 20.0372 99.2427 19.1596 99.8182 18.4606C100.394 17.7616 101.195 17.285 102.084 17.1129C103.056 16.8829 104.055 16.76 105.041 16.601C105.874 16.467 106.627 15.8819 106.567 15.3889C106.499 14.8089 105.821 14.3889 104.898 14.3889C104.035 14.3889 103.124 14.229 102.514 15.107C102.408 15.1964 102.271 15.2406 102.133 15.23C101.208 15.245 100.286 15.241 99.3499 15.241ZM106.661 18.268C106.061 18.461 105.696 18.591 105.322 18.695C104.922 18.803 104.502 18.859 104.104 18.986C103.648 19.1098 103.208 19.2866 102.793 19.513C102.588 19.6564 102.421 19.8465 102.305 20.0675C102.189 20.2886 102.127 20.5342 102.125 20.7838C102.123 21.0335 102.18 21.2801 102.293 21.5031C102.405 21.7261 102.569 21.919 102.771 22.0659C103.101 22.2132 103.457 22.2932 103.819 22.3011C104.18 22.309 104.54 22.2447 104.876 22.112C105.212 21.9793 105.519 21.7809 105.778 21.5283C106.036 21.2758 106.242 20.9741 106.383 20.641C106.53 19.8573 106.623 19.0644 106.662 18.268H106.661Z" fill="#E97707"/>
<path fill-rule="evenodd" clip-rule="evenodd" d="M49.5732 49.786H28.3872C28.7932 49.032 29.1352 48.309 29.5732 47.65C29.6942 47.476 30.1242 47.4501 30.4112 47.4501C35.7185 47.4394 41.0266 47.4374 46.3352 47.4441H47.2932V46.4921C47.2932 41.2701 47.3152 36.0451 47.2722 30.8251C47.2652 30.0071 47.4422 29.5121 48.2452 29.2461C48.7082 29.0483 49.1535 28.8115 49.5762 28.5381L49.5732 49.786Z" fill="#E97707"/>
<path fill-rule="evenodd" clip-rule="evenodd" d="M46.75 0.707031C47.103 1.09003 47.366 1.42503 47.681 1.70703C47.9677 1.92895 48.1921 2.22131 48.3323 2.55566C48.4725 2.89002 48.5237 3.25495 48.481 3.61499C48.554 4.64267 48.8882 5.63465 49.452 6.49695C50.5 8.42095 51.881 10.185 52.767 12.174C55.009 17.216 54.304 21.811 50.321 25.735C48.1189 27.8419 45.2649 29.1358 42.229 29.4039C38.6443 29.6854 35.0541 28.9331 31.884 27.236C30.8857 26.7887 29.8102 26.5391 28.717 26.501C28.3196 26.5183 27.9316 26.6277 27.5835 26.8203C27.2354 27.0129 26.9367 27.2837 26.7109 27.6112C26.4851 27.9387 26.3384 28.3142 26.2822 28.708C26.226 29.1018 26.2619 29.5034 26.387 29.881C26.7499 31.0652 27.1933 32.2232 27.714 33.3469C28.9058 35.8492 29.4724 38.6034 29.365 41.3729C28.965 46.6079 26.725 50.791 21.835 53.153C20.5238 53.7558 19.1054 54.0908 17.663 54.1385C16.2206 54.1863 14.7832 53.9458 13.435 53.431C11.1176 52.62 8.94135 51.4515 6.98501 49.968C6.18858 49.4424 5.34454 48.9927 4.46401 48.625C4.14214 48.5181 3.80208 48.477 3.46401 48.504C3.08801 48.504 2.59001 48.719 2.35201 48.549C1.77569 48.0962 1.25357 47.5785 0.79601 47.006C0.70201 46.896 0.76001 46.556 0.86201 46.39C3.02301 42.832 5.01301 39.1469 7.43201 35.7739C10.1597 32.2113 13.8162 29.4691 18 27.848C19.526 27.189 21.035 26.4829 22.576 25.8669C23.3648 25.5264 24.0742 25.0257 24.6595 24.3967C25.2447 23.7678 25.693 23.0242 25.976 22.213C27.0612 19.5237 28.301 16.8993 29.689 14.353C32.0224 10.3622 35.4113 7.09222 39.483 4.90295C41.904 3.56595 44.268 2.14403 46.75 0.707031ZM6.14201 43.679C6.06627 44.4131 6.16563 45.1548 6.43193 45.8431C6.69823 46.5315 7.12389 47.1469 7.67401 47.6389C9.16125 49.063 10.9179 50.1759 12.841 50.912C15.0922 51.9388 17.6321 52.144 20.019 51.4919C21.5102 51.028 22.8666 50.2091 23.9716 49.1055C25.0765 48.0019 25.8972 46.6466 26.363 45.156C28.014 40.385 27.035 35.934 24.289 31.819C24.072 31.3911 23.7683 31.0131 23.3973 30.7089C23.0263 30.4047 22.5961 30.181 22.134 30.052C19.9456 29.6951 17.7024 30.1579 15.834 31.3519C13.2187 32.8134 10.9158 34.7742 9.05601 37.1229C7.51101 39.0309 6.16101 41.022 6.14201 43.679ZM40.51 27.2109C43.1355 27.3563 45.7281 26.5714 47.832 24.994C49.0311 24.1855 50.0147 23.0965 50.6974 21.8215C51.38 20.5466 51.741 19.1242 51.749 17.678C51.7143 14.8973 50.8432 12.1915 49.249 9.91296C48.5236 8.56422 47.4307 7.44872 46.097 6.69592C43.54 5.52492 41.232 6.37696 39.051 7.68896C36.6351 9.20971 34.5277 11.1724 32.839 13.474C31.0521 15.533 29.9942 18.1237 29.829 20.845C29.7524 21.3321 29.7917 21.8304 29.9437 22.2996C30.0957 22.7687 30.3562 23.1953 30.704 23.5449C33.4166 25.9188 36.9014 27.2225 40.506 27.2119L40.51 27.2109Z" fill="#E97707"/>
<path fill-rule="evenodd" clip-rule="evenodd" d="M128.445 50.2069C127.678 50.2069 126.974 50.2489 126.279 50.1979C126.008 50.2052 125.738 50.1558 125.487 50.0527C125.236 49.9497 125.01 49.7954 124.822 49.5996C124.634 49.4039 124.49 49.171 124.397 48.916C124.305 48.661 124.267 48.3895 124.285 48.1189C124.262 45.2389 124.258 42.359 124.311 39.481C124.37 39.0948 124.341 38.7003 124.225 38.3273C124.109 37.9542 123.91 37.6124 123.642 37.3276C123.375 37.0429 123.046 36.8227 122.681 36.6836C122.316 36.5445 121.924 36.4903 121.535 36.5249C121.169 36.4935 120.802 36.4879 120.435 36.5079C120.109 36.5293 119.791 36.6156 119.499 36.7619C119.207 36.9081 118.948 37.1113 118.736 37.3595C118.524 37.6077 118.363 37.8958 118.264 38.2069C118.165 38.518 118.129 38.8458 118.159 39.1709C118.166 41.8809 118.173 44.5909 118.18 47.3009C118.18 48.0339 118.133 48.7669 118.169 49.5009C118.191 50.0369 117.961 50.2009 117.474 50.2009C116.513 50.2009 115.555 50.2119 114.594 50.2289C114.13 50.2369 113.954 50.044 113.954 49.565C113.965 46.179 113.924 42.7919 113.954 39.4049C114.007 39.0181 113.972 38.6244 113.852 38.2528C113.732 37.8813 113.531 37.5414 113.262 37.2582C112.993 36.975 112.664 36.7559 112.299 36.6168C111.935 36.4778 111.543 36.4225 111.154 36.455C110.873 36.455 110.589 36.455 110.308 36.455C109.975 36.4237 109.638 36.4667 109.323 36.5809C109.008 36.6952 108.723 36.8777 108.487 37.1155C108.251 37.3533 108.07 37.6404 107.959 37.9562C107.847 38.272 107.806 38.6086 107.84 38.9419C107.834 42.3599 107.817 45.775 107.857 49.189C107.867 49.975 107.63 50.2519 106.852 50.2089C106.036 50.1619 105.215 50.2009 104.397 50.2299C103.851 50.2489 103.579 50.1069 103.583 49.4729C103.606 45.9729 103.415 42.4609 103.638 38.9729C103.857 35.5069 105.438 33.64 108.86 32.95C111.142 32.4408 113.532 32.7863 115.576 33.9209C115.749 33.9864 115.934 34.016 116.119 34.0079C116.304 33.9999 116.485 33.9543 116.652 33.8739C117.918 33.2453 119.3 32.8858 120.711 32.8181C122.122 32.7505 123.532 32.9762 124.852 33.481C125.903 33.8576 126.81 34.5539 127.445 35.4722C128.08 36.3905 128.412 37.4846 128.393 38.601C128.567 42.434 128.445 46.2719 128.445 50.2069Z" fill="#E97707"/>
<path fill-rule="evenodd" clip-rule="evenodd" d="M61.3479 39.1519C61.3002 40.8546 61.6881 42.5413 62.4749 44.052C63.6509 46.273 66.3199 46.9359 68.4349 46.6239C69.3784 46.5038 70.2656 46.1089 70.9863 45.4884C71.7069 44.8678 72.2291 44.049 72.4879 43.1339C72.5634 43.0024 72.668 42.89 72.7937 42.8053C72.9194 42.7205 73.0628 42.6656 73.2129 42.6449C74.0549 42.5809 74.9049 42.613 75.7509 42.615C76.6509 42.621 76.7509 42.746 76.5649 43.688C76.3861 44.9812 75.8683 46.2042 75.0641 47.2326C74.2599 48.2611 73.1979 49.0585 71.9859 49.5439C67.9589 51.1439 64.0259 50.9979 60.4859 48.2769C58.8803 46.9093 57.8111 45.017 57.4679 42.9359C56.5942 39.5819 56.9051 36.0292 58.3479 32.8779C58.8617 31.7582 59.616 30.7654 60.5572 29.9703C61.4983 29.1752 62.6031 28.5974 63.7929 28.2779C66.2618 27.51 68.9065 27.5159 71.3719 28.2949C72.7259 28.7181 73.9336 29.5134 74.8573 30.5901C75.781 31.6667 76.3835 32.9813 76.5959 34.3839C76.7359 35.0189 76.5409 35.4469 75.7519 35.2929C75.5293 35.2531 75.3018 35.2489 75.0779 35.2809C74.3956 35.4206 73.6858 35.3135 73.075 34.9787C72.4643 34.644 71.9922 34.1033 71.7429 33.453C71.4626 32.9568 71.0654 32.5365 70.5859 32.2287C70.1063 31.921 69.5588 31.7349 68.9909 31.6869C64.9839 31.0509 62.1909 32.8539 61.5979 36.8029C61.4799 37.5849 61.4289 38.3719 61.3479 39.1519Z" fill="#E97707"/>
<path fill-rule="evenodd" clip-rule="evenodd" d="M83.272 42.8341C83.444 44.2751 83.636 45.5891 84.864 46.4161C85.5732 46.7973 86.3782 46.9631 87.1803 46.8932C87.9824 46.8232 88.7466 46.5204 89.379 46.0221C90.0243 45.5032 90.7877 45.1515 91.6013 44.998C92.415 44.8445 93.254 44.894 94.044 45.1421C93.9073 46.3413 93.3704 47.4594 92.52 48.316C91.6679 49.2058 90.6082 49.8703 89.4361 50.2497C88.2639 50.6292 87.0159 50.7118 85.804 50.4901C81.859 50.0401 79.47 47.512 79.124 43.342C78.8945 41.3756 79.0646 39.3832 79.624 37.4841C79.9886 36.2625 80.7083 35.177 81.6917 34.3657C82.675 33.5544 83.8774 33.054 85.146 32.9281C86.6735 32.6534 88.2445 32.748 89.728 33.2041C92.444 34.0561 93.694 36.1161 94.245 38.7041C94.4022 39.7025 94.4973 40.7098 94.53 41.7201C94.591 42.4151 94.341 42.749 93.578 42.742C90.478 42.717 87.372 42.7291 84.271 42.7351C83.952 42.7381 83.634 42.7981 83.272 42.8341ZM86.726 39.799C87.626 39.799 88.526 39.812 89.426 39.79C89.804 39.782 90.132 39.7251 90.051 39.1551C89.9869 38.393 89.6632 37.6758 89.1339 37.1237C88.6046 36.5717 87.9018 36.2181 87.143 36.122C86.2796 36.0213 85.4114 36.2653 84.7269 36.801C84.0423 37.3367 83.5968 38.1209 83.487 38.9831C83.356 39.5041 83.553 39.799 84.112 39.799C84.983 39.801 85.855 39.799 86.726 39.799V39.799Z" fill="#E97707"/>
<path fill-rule="evenodd" clip-rule="evenodd" d="M131.417 37.328C131.551 36.4129 131.937 35.553 132.53 34.8439C133.124 34.1347 133.903 33.604 134.78 33.311C137.234 32.5008 139.889 32.5455 142.314 33.438C143.141 33.6674 143.872 34.1567 144.399 34.8334C144.927 35.51 145.223 36.3384 145.243 37.196C145.344 39.6456 145.313 42.0988 145.15 44.545C145.104 45.784 144.659 46.975 143.881 47.9399C143.102 48.9049 142.032 49.5921 140.831 49.899C138.272 50.724 135.698 50.993 133.231 49.582C132.486 49.1673 131.873 48.5517 131.461 47.8054C131.049 47.0591 130.855 46.2123 130.901 45.3611C130.901 43.3501 131.501 41.5521 133.539 40.7681C134.974 40.299 136.435 39.9137 137.915 39.614C138.767 39.4569 139.604 39.2258 140.415 38.9231C140.617 38.7964 140.787 38.6241 140.911 38.42C141.034 38.216 141.108 37.9859 141.127 37.748C141.096 37.5081 141.013 37.2777 140.886 37.0721C140.758 36.8666 140.588 36.6906 140.387 36.556C139.622 36.1835 138.766 36.0389 137.921 36.1394C137.076 36.2399 136.278 36.5814 135.622 37.123C135.527 37.2257 135.402 37.2957 135.265 37.323C134.013 37.332 132.763 37.328 131.417 37.328ZM141.069 41.506C139.405 42.016 137.737 42.471 136.113 43.047C135.694 43.2519 135.353 43.5864 135.139 44.0007C134.926 44.415 134.851 44.8871 134.927 45.347C134.96 45.8483 135.186 46.3175 135.556 46.6567C135.927 46.996 136.414 47.1792 136.916 47.1681C137.667 47.1797 138.413 47.05 139.116 46.786C141.018 46.047 141.52 44.3741 141.069 41.5071V41.506Z" fill="#E97707"/>
<path fill-rule="evenodd" clip-rule="evenodd" d="M100.745 50.1988C99.57 50.1988 98.4199 50.1988 97.2679 50.1988C96.7679 50.1988 96.69 49.8658 96.694 49.4488C96.707 48.3488 96.7029 47.2489 96.7029 46.1549C96.6943 40.3735 96.6829 34.5922 96.6689 28.8109C96.6689 28.3249 96.7919 28.0608 97.3279 28.0778C97.7769 28.0908 98.228 28.0138 98.678 28.0418C98.961 28.0288 99.2437 28.0742 99.5084 28.1754C99.7731 28.2765 100.014 28.4312 100.216 28.6297C100.419 28.8282 100.578 29.0663 100.684 29.3291C100.79 29.5918 100.841 29.8736 100.833 30.1568C100.852 36.6988 100.833 43.2408 100.833 49.7828C100.812 49.9231 100.783 50.0621 100.745 50.1988Z" fill="#E97707"/>
<path fill-rule="evenodd" clip-rule="evenodd" d="M147.544 50.2119C147.544 49.1639 147.536 48.2669 147.544 47.3679C147.576 44.9999 147.499 42.6239 147.678 40.2679C147.993 36.0259 150.403 33.6259 154.564 33.1839C156.996 32.9229 157 32.9609 157 35.3779C157 37.2689 157 37.2369 155.108 37.3669C152.581 37.5389 151.86 38.8289 151.771 41.3669C151.671 43.9869 151.724 46.6169 151.76 49.2389C151.771 50.0239 151.503 50.2809 150.725 50.2319C149.719 50.1699 148.703 50.2119 147.544 50.2119Z" fill="#E97707"/>
<path fill-rule="evenodd" clip-rule="evenodd" d="M97.4799 15.9209C96.5019 15.9209 95.5979 15.9569 94.6999 15.8999C94.3616 15.8698 94.0488 15.7079 93.8289 15.449C93.5784 15.1189 93.2443 14.8614 92.8612 14.7033C92.4781 14.5451 92.0598 14.4919 91.6493 14.5491C91.2388 14.6064 90.8509 14.772 90.5257 15.029C90.2005 15.2859 89.9496 15.6248 89.7989 16.0109C89.2789 17.5387 89.2923 19.1977 89.8369 20.717C89.9726 21.0654 90.1905 21.3758 90.4721 21.6217C90.7538 21.8677 91.0907 22.0419 91.4543 22.1293C91.8178 22.2168 92.1971 22.2149 92.5598 22.1239C92.9224 22.033 93.2577 21.8556 93.5369 21.607C94.7569 20.532 96.0629 20.764 97.4099 20.725C97.3147 21.7955 96.8452 22.7982 96.0841 23.5569C95.3229 24.3157 94.3188 24.782 93.248 24.8739C92.1834 24.9735 91.1098 24.9112 90.0639 24.689C89.2481 24.5009 88.4992 24.0936 87.8977 23.5111C87.2963 22.9287 86.8652 22.1933 86.6509 21.384C86.046 19.4975 86.0016 17.4762 86.5229 15.565C87.2919 12.751 89.1939 11.931 91.5309 11.726C92.4855 11.6714 93.4423 11.7845 94.3579 12.06C95.2219 12.2867 95.9908 12.7836 96.5525 13.4782C97.1141 14.1728 97.4391 15.0286 97.4799 15.9209V15.9209Z" fill="#E97707"/>
<path fill-rule="evenodd" clip-rule="evenodd" d="M77.4289 14.272C77.4289 16.593 77.4219 18.848 77.4349 21.101C77.4349 21.73 77.7349 22.1011 78.4349 22.0291C78.7349 21.9971 79.0469 22.023 79.4059 22.023V24.6231C78.0909 24.5411 76.7509 24.5531 75.4459 24.3411C74.4259 24.1751 74.2459 23.1741 74.2389 22.3471C74.2049 17.7221 74.2389 13.0971 74.2489 8.47309C74.2489 8.45209 74.2789 8.43003 74.3619 8.30903C75.2479 8.45803 76.4619 7.76611 77.0529 8.89411C77.3754 9.84109 77.56 10.8295 77.6009 11.829H79.3349C79.6289 13.375 79.0779 14.076 77.4289 14.272Z" fill="#E97707"/>
<path fill-rule="evenodd" clip-rule="evenodd" d="M81.2759 24.6741V11.9091C81.9641 11.8623 82.6549 11.8699 83.3419 11.932C83.6419 11.9551 83.9211 12.0944 84.12 12.3202C84.3189 12.546 84.4218 12.8405 84.4069 13.141C84.4159 14.774 84.4669 16.406 84.4769 18.041C84.4899 20.234 84.4769 22.428 84.4769 24.676L81.2759 24.6741Z" fill="#E97707"/>
<path fill-rule="evenodd" clip-rule="evenodd" d="M84.3868 10.7939H81.2798V8.44896C83.9328 8.03196 84.6648 8.26293 84.3868 10.7939Z" fill="#E97707"/>
<path fill-rule="evenodd" clip-rule="evenodd" d="M68.5279 4.06293C67.874 4.94697 67.1344 5.76434 66.3199 6.503C65.8389 6.862 65.0109 6.74899 64.3389 6.84699C64.2959 6.77899 64.2559 6.71092 64.2129 6.64692C64.7529 5.84692 65.2589 5.03197 65.8499 4.27497C65.9929 4.09397 66.4089 4.09202 66.7019 4.07502C67.2249 4.04202 67.7499 4.06293 68.5279 4.06293Z" fill="#E97707"/>
</svg>
